<?xml version="1.0" encoding="UTF-8" standalone="no"?>
<svg
   width="1024"
   height="1536"
   viewBox="0 0 1024 1536"
   version="1.1"
   id="svg33"
   sodipodi:docname="logo-v1.svg"
   inkscape:version="1.4.2 (f4327f4, 2025-05-13)"
   xmlns:inkscape="http://www.inkscape.org/namespaces/inkscape"
   xmlns:sodipodi="http://sodipodi.sourceforge.net/DTD/sodipodi-0.dtd"
   xmlns="http://www.w3.org/2000/svg"
   xmlns:svg="http://www.w3.org/2000/svg">
  <sodipodi:namedview
     id="namedview33"
     pagecolor="#ffffff"
     bordercolor="#000000"
     borderopacity="0.25"
     inkscape:showpageshadow="2"
     inkscape:pageopacity="0.0"
     inkscape:pagecheckerboard="0"
     inkscape:deskcolor="#d1d1d1"
     inkscape:zoom="0.75976562"
     inkscape:cx="192.82262"
     inkscape:cy="781.16195"
     inkscape:window-width="3440"
     inkscape:window-height="1406"
     inkscape:window-x="-11"
     inkscape:window-y="1285"
     inkscape:window-maximized="1"
     inkscape:current-layer="svg33" />
  <path
     fill="#DA5038"
     d="M418.253 423.183C454.704 371.717 524.333 361.345 575.95 396.407L577.534 397.299L588.042 405.686C612.511 431.164 624.158 455.131 623.261 490.161C620.686 590.717 498.359 639.426 428.83 565.032C406.865 541.529 398.196 516.716 398.992 484.656C399.868 459.545 404.923 444.352 418.253 423.183Z"
     id="path1" />
  <defs
     id="defs2">
    <linearGradient
       id="gradient_0"
       gradientUnits="userSpaceOnUse"
       x1="510.41351"
       y1="389.99442"
       x2="510.52496"
       y2="515.21228">
      <stop
         offset="0"
         stop-color="#E66A49"
         id="stop1" />
      <stop
         offset="1"
         stop-color="#B97467"
         id="stop2" />
    </linearGradient>
  </defs>
  <path
     fill="url(#gradient_0)"
     d="M413.127 477.859C412.447 460.053 423.54 439 434.302 425.44C478.072 370.291 563.492 379.971 597.461 440.273C601.699 447.797 606.531 459.822 607.353 468.373C609.655 479.448 609.409 483.616 609.112 494.721C609.005 496.458 608.975 498.248 608.615 499.933C605.12 519.692 600.805 532.006 588.342 548.109C545.688 603.219 457.746 596.629 424.441 534.874C417.382 522.582 407.978 491.046 413.127 477.859Z"
     id="path2" />
  <path
     fill="#1a7a93"
     d="m 494.736,485.521 -1.07877,4.97231 c 3.612,1.898 5.57977,0.0377 9.32577,2.36669 l 1.029,-0.706 0.786,-4.656 c 2.917,1.981 3.281,5.03 5.354,5.763 2.856,-2.13 5.311,-0.716 4.053,2.759 4.685,-1.282 11.149,-3.523 15.752,-2.527 8.283,-1.121 14.251,-2.132 22.631,-2.332 9.644,0.163 19.065,0.282 28.704,0.893 8.93,1.612 18.569,1.335 27.403,2.804 l 0.417,-0.137 c -0.107,1.737 -0.137,3.527 -0.497,5.212 -3.495,19.759 -7.81,32.073 -20.273,48.176 -42.654,55.11 -130.596,48.52 -163.901,-13.235 10.944,-2.765 28.939,-9.614 39.738,-13.941 l 8.272,-5.059 2.092,-1.178 4.072,-1.586 c 2.705,-7.606 2.30702,-1.01795 8.77802,-5.32995 1.346,-2.01 0.70398,-4.16805 0.72298,-6.52105 -1.151,-1.969 -3.595,-2.6 -5.855,-3.56 l -0.016,-1.03 c 4.335,-1.949 20.92,5.18 12.491,-11.148 z"
     id="path3"
     sodipodi:nodetypes="cccccccccccccccccccccccc" />
  <defs
     id="defs4">
    <linearGradient
       id="gradient_1"
       gradientUnits="userSpaceOnUse"
       x1="575.84204"
       y1="487.616"
       x2="567.20703"
       y2="512.80518">
      <stop
         offset="0"
         stop-color="#7A8C8F"
         id="stop3" />
      <stop
         offset="1"
         stop-color="#92A9AD"
         id="stop4" />
    </linearGradient>
  </defs>
  <path
     fill="#f2ead8"
     d="m 488.76977,482.9117 6.12553,3.63131 c 3.612,1.898 4.3417,3.98799 8.0877,6.31699 l 1.029,-0.706 -0.20286,-19.83789 c 2.917,1.981 5.25701,17.74402 7.33001,18.47702 2.856,-2.13 11.99898,-13.51137 14.15198,-16.43737 -0.219,3.578 -4.82738,15.79779 -6.08538,19.27279 4.685,-1.282 23.63177,-6.70885 28.23477,-5.71285 -4.69,1.698 -25.12852,10.1993 -29.57252,12.4353 6.242,-0.238 16.81155,3.77561 22.81455,2.52361 -1.643,1.692 -9.75167,1.6953 -11.19367,3.5883 -4.06,2.172 -9.19588,-1.06791 -13.72388,-0.31091 4.912,2.531 11.95938,12.77253 16.97138,15.03053 -4.153,-1.041 -12.45838,-10.48353 -16.49838,-10.12453 l -1.465,0.935 c -0.912,4.231 3.341,9.087 5.443,13.112 -5.517,-3.765 -6.731,-4.455 -10.587,-9.875 l -1.53969,16.29044 c -1.028,-2.689 -2.45431,-14.17544 -4.30231,-15.56644 l -1.456,0.69 -0.484,-0.221 c -0.522,-1.666 -0.892,-2.462 -1.638,-4.049 l -1.436,-0.478 c -2.635,0.989 -3.722,2.73 -5.579,4.914 -3.121,2.648 -5.881,8.86476 -8.873,11.66076 0.12,-4.879 8.881,-13.42476 9.509,-17.64576 l -1.586,-0.856 c -3.283,-0.239 -5.29,0.633 -8.42,1.636 l -8.20466,2.65382 c 2.705,-7.606 9.51959,-4.1653 9.36796,-6.95381 1.346,-2.01 3.1097,-3.69301 3.1287,-6.04601 -1.151,-1.969 -10.3405,-3.58715 -12.6005,-4.54715 l 6.7295,-0.0429 c 4.335,-1.949 14.95377,2.5707 6.52477,-13.7573 z"
     id="path7"
     sodipodi:nodetypes="cccccccccccccccccccccccccccccccccccc" />
  <defs
     id="defs8">
    <linearGradient
       id="gradient_2"
       gradientUnits="userSpaceOnUse"
       x1="575.04193"
       y1="488.89792"
       x2="572.56415"
       y2="501.21786">
      <stop
         offset="0"
         stop-color="#00638F"
         id="stop7" />
      <stop
         offset="1"
         stop-color="#4999A6"
         id="stop8" />
    </linearGradient>
  </defs>
  <defs
     id="defs11">
    <linearGradient
       id="gradient_3"
       gradientUnits="userSpaceOnUse"
       x1="439.64551"
       y1="506.43829"
       x2="430.72955"
       y2="533.99579">
      <stop
         offset="0"
         stop-color="#987572"
         id="stop10" />
      <stop
         offset="1"
         stop-color="#5B7E8A"
         id="stop11" />
    </linearGradient>
  </defs>
  <defs
     id="defs14">
    <linearGradient
       id="gradient_4"
       gradientUnits="userSpaceOnUse"
       x1="532.86853"
       y1="486.78076"
       x2="518.07825"
       y2="493.06329">
      <stop
         offset="0"
         stop-color="#EA9472"
         id="stop13" />
      <stop
         offset="1"
         stop-color="#F9BF9B"
         id="stop14" />
    </linearGradient>
  </defs>
  <path
     fill="#DA5038"
     d="M481.922 911.223C485.115 910.996 492.927 911.716 491.896 916.215C489.243 925.73 476.012 932.233 468.483 938.79C428.111 973.953 429.168 1022.67 472.404 1054.4C480.965 1060.68 496.369 1065.93 485.17 1076.91C472.634 1077.39 445.005 1050.74 438.142 1039.48C404.903 984.98 437.274 940.46 481.922 911.223Z"
     id="path16" />
  <path
     fill="#219BC3"
     d="M455.397 988.621C464.127 987.858 474.238 988.178 483.1 988.202C510.433 988.385 537.858 987.761 565.176 988.448C572.802 988.64 573.19 996.236 568.146 1001.33C563.17 1002.32 535.25 1001.92 528.649 1001.93C505.982 1001.85 483.325 1002.12 460.658 1001.79C456.648 1001.73 452.849 1000.85 452.308 995.998C451.929 992.599 453.238 991.03 455.397 988.621Z"
     id="path17" />
  <path
     fill="#219BC3"
     d="M470.421 1028.91C475.942 1025.44 522.93 1028.23 533.704 1027.26C538.831 1026.8 554.209 1027.13 553.851 1034.94C552.765 1036.96 550.214 1040.36 548.048 1040.62C538.237 1041.79 524.297 1040.23 514.779 1041.09C510.737 1040.83 505.836 1041.03 501.723 1041.1C496.931 1040.88 492.581 1041.14 487.823 1041.13C478.871 1041.12 464.352 1043.55 469.082 1029.53L470.421 1028.91Z"
     id="path18" />
  <path
     fill="#219BC3"
     d="M515.85 962.919L515.114 962.86C507.19 962.265 473.904 965.109 469.366 960.12C468.196 958.833 467.401 957.177 467.585 955.403C467.779 953.53 468.939 951.752 470.483 950.709C471.869 949.772 473.27 949.615 474.9 949.492C483.28 948.86 541.743 948.338 547.643 949.755C549.498 950.2 551.232 951.944 552.131 953.586C552.873 954.941 553.247 956.595 552.569 958.051C551.638 960.052 549.176 961.897 547.07 962.396C545.799 962.698 544.441 962.861 543.139 962.964C535.116 962.354 523.968 962.599 515.85 962.919Z"
     id="path19" />
  <path
     fill="#DA5038"
     d="M594.707 771.672C596.84 771.953 602.185 772.947 602.506 775.67C608.15 823.576 578.919 870.848 536.374 892.375C532.698 891.906 530.663 891.28 528.312 888.387C526.177 882.118 534.486 876.979 538.835 874.136C565.373 856.792 584.527 829.971 588.49 798.137C589.718 788.274 585.465 777.377 594.707 771.672Z"
     id="path20" />
  <path
     fill="#DA5038"
     d="M419.874 808.363C419.397 804.908 410.743 761.556 429.381 774.149C433.766 777.113 431.124 793.191 432.249 797.919C436.129 832.463 457.777 858.567 486.625 876.575C520.425 901.233 563.128 918.166 585.234 956.241C587.98 960.97 592.485 970.128 593.283 975.615C598.411 992.366 596.53 1019.04 586.173 1033.51C574.508 1056.13 547.389 1074.98 526.35 1087.95C520.305 1091.68 508.441 1098.25 503.212 1102.11L501.755 1102.78C485.654 1112.19 477.507 1117.8 463.546 1129.97C446.174 1147.12 435.07 1164.07 429.377 1187.95C427.176 1197.18 417.482 1197.23 415.462 1189.07C414.057 1183.39 419.065 1171.68 421.174 1165.96C447.502 1094.6 532.348 1086.8 572.26 1028.96C578.696 1019.61 583.251 1003.27 581.942 991.312C574.825 926.251 485.039 905.982 446.901 861.706C430.777 842.985 425.239 831.295 419.874 808.363Z"
     id="path21" />
  <path
     fill="#219BC3"
     d="M300.465 583.819C301.144 583.747 301.633 583.69 302.319 583.683C342.99 583.24 378.747 603.208 407.314 630.722C445.028 666.871 470.092 716.352 475.707 768.367C476.534 776.026 482.301 801.298 469.324 799.571C463.076 798.74 463.329 790.163 463.185 785.377C461.934 743.769 447.544 704.814 423.703 670.939C390.17 625.622 332.741 582.022 272.52 603.884C240.887 615.368 219.411 644.795 211.542 676.47C211.03 678.532 208.428 680.307 206.495 681.011C202.031 681.082 199.428 676.381 199.67 672.524C200.738 655.485 212.09 635.274 222.959 622.666C244.104 598.139 268.425 586.266 300.465 583.819Z"
     id="path22" />
  <path
     fill="#219BC3"
     d="M558.204 797.761C556.836 798.668 555.273 799.414 553.614 799.573C551.708 799.756 549.493 799.216 548.103 797.849C545.144 794.938 545.691 787.568 545.791 783.651C547.28 725.324 574.349 670.68 616.35 630.757C644.421 604.076 682.496 582.637 722.29 583.762C750.454 584.558 776.173 596.57 795.462 617.021C805.924 628.115 824.883 658.852 823.858 673.847C823.732 675.691 823.078 677.486 821.529 678.597C819.936 679.74 817.302 680.48 815.38 679.857C811.571 678.622 805.381 657.813 802.934 652.701C791.916 629.685 772.589 611.497 748.34 603.032C722.371 593.967 694.397 598.202 670.027 609.984C616.993 635.623 576.05 692.47 563.981 749.506C562.394 757.005 560.951 764.76 560.262 772.395C559.603 779.688 561.036 789.082 558.536 795.83C558.471 796.007 558.394 796.18 558.323 796.355L558.204 797.761Z"
     id="path23" />
  <path
     fill="#219BC3"
     d="M511.579 728.551C521.569 684.368 543.287 644.701 574.471 611.806C578.944 607.088 590.186 596.92 593.114 608.75C593.908 612.689 589.737 616.727 587.247 619.288C579.982 626.761 573.438 634.208 567.025 642.421C541.558 676.741 528.286 709.233 520.391 751.841C518.361 762.796 519.073 776.279 516.097 786.428C515.569 788.227 513.813 789.391 512.057 790.057C509.639 789.879 505.955 789.278 505.15 786.681C503.291 780.675 503.825 769.435 503.136 763.039C501.914 751.691 500.14 740.833 497.528 729.923C488.92 693.967 473.666 661.76 449.677 633.51C444.483 627.463 438.383 622.269 433.05 616.345C427.946 610.674 429.194 606.902 435.195 602.861C442.832 604.059 447.574 610.921 452.67 616.217C484.512 649.314 499.778 685.162 511.579 728.551Z"
     id="path24" />
  <path
     fill="#219BC3"
     d="M338.055 666.297C379.714 663.612 412.293 692.232 431.781 726.395C434 730.284 440.642 740.532 438.03 744.702C432.06 753.899 425.681 745.394 422.488 739.129C403.558 701.982 368.435 670.681 324.26 682.841C281.172 700.525 274.449 744.839 273.854 783.121C273.745 790.098 260.526 795.571 260.203 782.468C258.914 730.178 278.293 673.227 338.055 666.297Z"
     id="path25" />
  <path
     fill="#219BC3"
     d="M675.612 666.292C733.234 660.155 761.978 722.695 762.757 769.924C762.862 776.285 765.269 787.708 757.732 790.349C747.685 790.484 749.442 779.452 749.072 772.966C747.062 737.666 738.42 706.653 707.047 686.719C663.57 661.671 614.161 706.377 597.334 744.557C594.11 751.874 579.487 748.898 586.037 735.82C590.501 726.48 596.242 717.402 602.765 709.354C622.664 684.805 643.998 669.856 675.612 666.292Z"
     id="path26" />
  <path
     fill="#219BC3"
     d="M719.329 499.051C734.93 496.866 755.13 502.806 768.879 510.228C773.161 512.539 776.565 518.708 772.92 523.38C766.084 526.905 761.367 522.406 755.214 519.466C715.921 500.694 679.513 523.42 655.074 552.307C645.917 563.532 639.91 574.916 632.061 586.55C629.887 589.771 616.374 587.437 623.807 574.008C644.437 536.736 674.764 503.464 719.329 499.051Z"
     id="path27" />
  <path
     fill="#219BC3"
     d="M291.631 499.07C337.378 495.794 372.64 528.967 394.358 565.438C398.056 571.648 408.464 588.709 392.799 587.267C388.552 585.504 378.561 566.482 374.779 560.669C350.128 527.866 315.253 501.602 272.022 517.429C268.03 518.642 255.105 528.719 251.146 523.74C238.145 507.387 284.689 499.619 291.631 499.07Z"
     id="path28" />
  <path
     fill="#219BC3"
     d="M458.242 1166.25L529.086 1166.25C541.753 1166.23 554.512 1165.91 567.113 1166.69C573.166 1167.07 576.832 1173.02 572.236 1177.2C567.217 1181.75 555.48 1180.01 549.169 1179.98L518.539 1180C497.188 1180.03 475.081 1180.33 453.711 1179.77C450.032 1179.67 449.326 1178.34 446.647 1175.6C447.373 1170.03 447.012 1169.29 452.033 1166.41L458.242 1166.25Z"
     id="path29" />
  <path
     fill="#219BC3"
     d="M531.289 1101.05C538.081 1095.32 540.508 1096.05 547.651 1101.13C574.057 1121.94 594.389 1148.27 604.56 1180.59C609.94 1197.69 594.836 1198.52 592.452 1189C584.828 1158.16 564.597 1132.99 540.244 1113.36C535.679 1109.68 532.009 1107.03 531.289 1101.05Z"
     id="path30" />
  <path
     fill="#219BC3"
     d="M457.081 823.972C458.366 822.971 461.198 820.592 462.809 820.544C489.848 819.762 516.975 820.329 544.031 820.192C549.358 820.166 556.38 819.861 561.521 820.63C568.364 821.654 567.611 829.573 563.289 833.618C548.776 834.215 532.74 833.305 518.876 834.055C514.098 833.756 509.885 833.921 505.123 834.061C495.405 833.516 467.129 835.956 458.891 831.567C457.15 830.64 457.143 826.145 457.081 823.972Z"
     id="path31" />
  <path
     fill="#219bc3"
     d="m 476.908,1129.49 43.219,0.06 c 6.742,-0.01 27.148,-2.49 25.648,6.82 -1.76,10.94 -36.39964,6.7162 -45.58248,6.9404 -7.36626,0.1041 -21.27152,1.1096 -26.24452,-3.0904 -1.109,-1.13 -1.28016,-4.1742 -1.47916,-5.8942 0.8109,-3.0029 2.24932,-4.0094 4.43916,-4.8358 z"
     id="path32"
     sodipodi:nodetypes="ccccccc" />
  <path
     fill="#219BC3"
     d="M501.548 856.227C508.341 856.134 517.693 854.931 523.409 858.57C523.908 861.538 524.395 863.262 523.881 866.249C516.83 871.948 484.749 871.617 489.205 859.561C492.739 856.258 497.009 856.198 501.548 856.227Z"
     id="path33" />
</svg>
