<?xml version="1.0" encoding="UTF-8" standalone="no"?>
<svg
   width="630"
   height="824"
   viewBox="0 0 630 824"
   version="1.1"
   id="svg33"
   sodipodi:docname="logo.svg"
   inkscape:version="1.4.2 (f4327f4, 2025-05-13)"
   xmlns:inkscape="http://www.inkscape.org/namespaces/inkscape"
   xmlns:sodipodi="http://sodipodi.sourceforge.net/DTD/sodipodi-0.dtd"
   xmlns="http://www.w3.org/2000/svg"
   xmlns:svg="http://www.w3.org/2000/svg">
  <sodipodi:namedview
     id="namedview1"
     pagecolor="#ffffff"
     bordercolor="#000000"
     borderopacity="0.25"
     inkscape:showpageshadow="2"
     inkscape:pageopacity="0.0"
     inkscape:pagecheckerboard="0"
     inkscape:deskcolor="#d1d1d1"
     inkscape:zoom="0.75976562"
     inkscape:cx="511.3419"
     inkscape:cy="768"
     inkscape:window-width="3440"
     inkscape:window-height="1406"
     inkscape:window-x="-11"
     inkscape:window-y="1285"
     inkscape:window-maximized="1"
     inkscape:current-layer="svg33" />
  <path
     fill="#da5038"
     d="m 222.13989,50.699712 c 36.451,-51.46599966 106.08,-61.838 157.697,-26.776 l 1.584,0.892 10.508,8.387 c 24.469,25.478 36.116,49.445 35.219,84.474998 -2.575,100.556 -124.902,149.265 -194.431,74.871 -21.965,-23.503 -30.634,-48.316 -29.838,-80.376 0.876,-25.110998 5.931,-40.303998 19.261,-61.472998 z"
     id="path1" />
  <defs
     id="defs2">
    <linearGradient
       id="gradient_0"
       gradientUnits="userSpaceOnUse"
       x1="510.41351"
       y1="389.99442"
       x2="510.52496"
       y2="515.21228"
       gradientTransform="translate(-196.11311,-372.48329)">
      <stop
         offset="0"
         stop-color="#E66A49"
         id="stop1" />
      <stop
         offset="1"
         stop-color="#B97467"
         id="stop2" />
    </linearGradient>
  </defs>
  <path
     fill="url(#gradient_0)"
     d="m 217.01389,105.37571 c -0.68,-17.805998 10.413,-38.858998 21.175,-52.418998 43.77,-55.1489997 129.19,-45.4689997 163.159,14.833 4.238,7.524 9.07,19.549 9.892,28.1 2.302,11.074998 2.056,15.242998 1.759,26.347998 -0.107,1.737 -0.137,3.527 -0.497,5.212 -3.495,19.759 -7.81,32.073 -20.273,48.176 -42.654,55.11 -130.596,48.52 -163.901,-13.235 -7.059,-12.292 -16.463,-43.828 -11.314,-57.015 z"
     id="path2"
     style="fill:url(#gradient_0)" />
  <path
     fill="#1a7a93"
     d="m 298.62289,113.03771 -1.07877,4.97231 c 3.612,1.898 5.57977,0.0377 9.32577,2.36669 l 1.029,-0.706 0.786,-4.656 c 2.917,1.981 3.281,5.03 5.354,5.763 2.856,-2.13 5.311,-0.716 4.053,2.759 4.685,-1.282 11.149,-3.523 15.752,-2.527 8.283,-1.121 14.251,-2.132 22.631,-2.332 9.644,0.163 19.065,0.282 28.704,0.893 8.93,1.612 18.569,1.335 27.403,2.804 l 0.417,-0.137 c -0.107,1.737 -0.137,3.527 -0.497,5.212 -3.495,19.759 -7.81,32.073 -20.273,48.176 -42.654,55.11 -130.596,48.52 -163.901,-13.235 10.944,-2.765 28.939,-9.614 39.738,-13.941 l 8.272,-5.059 2.092,-1.178 4.072,-1.586 c 2.705,-7.606 2.30702,-1.01795 8.77802,-5.32995 1.346,-2.01 0.70398,-4.16805 0.72298,-6.52105 -1.151,-1.969 -3.595,-2.6 -5.855,-3.56 l -0.016,-1.03 c 4.335,-1.949 20.92,5.18 12.491,-11.148 z"
     id="path3" />
  <defs
     id="defs4">
    <linearGradient
       id="gradient_1"
       gradientUnits="userSpaceOnUse"
       x1="575.84204"
       y1="487.616"
       x2="567.20703"
       y2="512.80518">
      <stop
         offset="0"
         stop-color="#7A8C8F"
         id="stop3" />
      <stop
         offset="1"
         stop-color="#92A9AD"
         id="stop4" />
    </linearGradient>
  </defs>
  <path
     fill="#f2ead8"
     d="m 292.65666,110.42841 6.12553,3.63131 c 3.612,1.898 4.3417,3.98799 8.0877,6.31699 l 1.029,-0.706 -0.20286,-19.837888 c 2.917,1.980998 5.25701,17.744018 7.33001,18.477018 2.856,-2.13 11.99898,-13.51137 14.15198,-16.43737 -0.219,3.578 -4.82738,15.79779 -6.08538,19.27279 4.685,-1.282 23.63177,-6.70885 28.23477,-5.71285 -4.69,1.698 -25.12852,10.1993 -29.57252,12.4353 6.242,-0.238 16.81155,3.77561 22.81455,2.52361 -1.643,1.692 -9.75167,1.6953 -11.19367,3.5883 -4.06,2.172 -9.19588,-1.06791 -13.72388,-0.31091 4.912,2.531 11.95938,12.77253 16.97138,15.03053 -4.153,-1.041 -12.45838,-10.48353 -16.49838,-10.12453 l -1.465,0.935 c -0.912,4.231 3.341,9.087 5.443,13.112 -5.517,-3.765 -6.731,-4.455 -10.587,-9.875 l -1.53969,16.29044 c -1.028,-2.689 -2.45431,-14.17544 -4.30231,-15.56644 l -1.456,0.69 -0.484,-0.221 c -0.522,-1.666 -0.892,-2.462 -1.638,-4.049 l -1.436,-0.478 c -2.635,0.989 -3.722,2.73 -5.579,4.914 -3.121,2.648 -5.881,8.86476 -8.873,11.66076 0.12,-4.879 8.881,-13.42476 9.509,-17.64576 l -1.586,-0.856 c -3.283,-0.239 -5.29,0.633 -8.42,1.636 l -8.20466,2.65382 c 2.705,-7.606 9.51959,-4.1653 9.36796,-6.95381 1.346,-2.01 3.1097,-3.69301 3.1287,-6.04601 -1.151,-1.969 -10.3405,-3.58715 -12.6005,-4.54715 l 6.7295,-0.0429 c 4.335,-1.949 14.95377,2.5707 6.52477,-13.7573 z"
     id="path7" />
  <defs
     id="defs8">
    <linearGradient
       id="gradient_2"
       gradientUnits="userSpaceOnUse"
       x1="575.04193"
       y1="488.89792"
       x2="572.56415"
       y2="501.21786">
      <stop
         offset="0"
         stop-color="#00638F"
         id="stop7" />
      <stop
         offset="1"
         stop-color="#4999A6"
         id="stop8" />
    </linearGradient>
  </defs>
  <defs
     id="defs11">
    <linearGradient
       id="gradient_3"
       gradientUnits="userSpaceOnUse"
       x1="439.64551"
       y1="506.43829"
       x2="430.72955"
       y2="533.99579">
      <stop
         offset="0"
         stop-color="#987572"
         id="stop10" />
      <stop
         offset="1"
         stop-color="#5B7E8A"
         id="stop11" />
    </linearGradient>
  </defs>
  <defs
     id="defs14">
    <linearGradient
       id="gradient_4"
       gradientUnits="userSpaceOnUse"
       x1="532.86853"
       y1="486.78076"
       x2="518.07825"
       y2="493.06329">
      <stop
         offset="0"
         stop-color="#EA9472"
         id="stop13" />
      <stop
         offset="1"
         stop-color="#F9BF9B"
         id="stop14" />
    </linearGradient>
  </defs>
  <path
     fill="#da5038"
     d="m 285.80889,538.73971 c 3.193,-0.227 11.005,0.493 9.974,4.992 -2.653,9.515 -15.884,16.018 -23.413,22.575 -40.372,35.163 -39.315,83.88 3.921,115.61 8.561,6.28 23.965,11.53 12.766,22.51 -12.536,0.48 -40.165,-26.17 -47.028,-37.43 -33.239,-54.5 -0.868,-99.02 43.78,-128.257 z"
     id="path16" />
  <path
     fill="#219bc3"
     d="m 259.28389,616.13771 c 8.73,-0.763 18.841,-0.443 27.703,-0.419 27.333,0.183 54.758,-0.441 82.076,0.246 7.626,0.192 8.014,7.788 2.97,12.882 -4.976,0.99 -32.896,0.59 -39.497,0.6 -22.667,-0.08 -45.324,0.19 -67.991,-0.14 -4.01,-0.06 -7.809,-0.94 -8.35,-5.792 -0.379,-3.399 0.93,-4.968 3.089,-7.377 z"
     id="path17" />
  <path
     fill="#219bc3"
     d="m 274.30789,656.42671 c 5.521,-3.47 52.509,-0.68 63.283,-1.65 5.127,-0.46 20.505,-0.13 20.147,7.68 -1.086,2.02 -3.637,5.42 -5.803,5.68 -9.811,1.17 -23.751,-0.39 -33.269,0.47 -4.042,-0.26 -8.943,-0.06 -13.056,0.01 -4.792,-0.22 -9.142,0.04 -13.9,0.03 -8.952,-0.01 -23.471,2.42 -18.741,-11.6 z"
     id="path18" />
  <path
     fill="#219bc3"
     d="m 319.73689,590.43571 -0.736,-0.059 c -7.924,-0.595 -41.21,2.249 -45.748,-2.74 -1.17,-1.287 -1.965,-2.943 -1.781,-4.717 0.194,-1.873 1.354,-3.651 2.898,-4.694 1.386,-0.937 2.787,-1.094 4.417,-1.217 8.38,-0.632 66.843,-1.154 72.743,0.263 1.855,0.445 3.589,2.189 4.488,3.831 0.742,1.355 1.116,3.009 0.438,4.465 -0.931,2.001 -3.393,3.846 -5.499,4.345 -1.271,0.302 -2.629,0.465 -3.931,0.568 -8.023,-0.61 -19.171,-0.365 -27.289,-0.045 z"
     id="path19" />
  <path
     fill="#da5038"
     d="m 398.59389,399.18871 c 2.133,0.281 7.478,1.275 7.799,3.998 5.644,47.906 -23.587,95.178 -66.132,116.705 -3.676,-0.469 -5.711,-1.095 -8.062,-3.988 -2.135,-6.269 6.174,-11.408 10.523,-14.251 26.538,-17.344 45.692,-44.165 49.655,-75.999 1.228,-9.863 -3.025,-20.76 6.217,-26.465 z"
     id="path20" />
  <path
     fill="#da5038"
     d="m 223.76089,435.87971 c -0.477,-3.455 -9.131,-46.807 9.507,-34.214 4.385,2.964 1.743,19.042 2.868,23.77 3.88,34.544 25.528,60.648 54.376,78.656 33.8,24.658 76.503,41.591 98.609,79.666 2.746,4.729 7.251,13.887 8.049,19.374 5.128,16.751 3.247,43.425 -7.11,57.895 -11.665,22.62 -38.784,41.47 -59.823,54.44 -6.045,3.73 -17.909,10.3 -23.138,14.16 l -1.457,0.67 c -16.101,9.41 -24.248,15.02 -38.209,27.19 -17.372,17.15 -28.476,34.1 -34.169,57.98 -2.201,9.23 -11.895,9.28 -13.915,1.12 -1.405,-5.68 3.603,-17.39 5.712,-23.11 26.328,-71.36 111.174,-79.16 151.086,-137 6.436,-9.35 10.991,-25.69 9.682,-37.648 -7.117,-65.061 -96.903,-85.33 -135.041,-129.606 -16.124,-18.721 -21.662,-30.411 -27.027,-53.343 z"
     id="path21" />
  <path
     fill="#219bc3"
     d="m 104.35189,211.33571 c 0.679,-0.072 1.168,-0.129 1.854,-0.136 40.671,-0.443 76.428,19.525 104.995,47.039 37.714,36.149 62.778,85.63 68.393,137.645 0.827,7.659 6.594,32.931 -6.383,31.204 -6.248,-0.831 -5.995,-9.408 -6.139,-14.194 -1.251,-41.608 -15.641,-80.563 -39.482,-114.438 -33.533,-45.317 -90.962,-88.917 -151.183001,-67.055 -31.633,11.484 -53.109,40.911 -60.978,72.586 -0.512,2.062 -3.114,3.837 -5.047,4.541 -4.4639995,0.071 -7.0669995,-4.63 -6.8249995,-8.487 1.068,-17.039 12.4199995,-37.25 23.2889995,-49.858 21.145,-24.527 45.466,-36.4 77.506001,-38.847 z"
     id="path22" />
  <path
     fill="#219bc3"
     d="m 362.09089,425.27771 c -1.368,0.907 -2.931,1.653 -4.59,1.812 -1.906,0.183 -4.121,-0.357 -5.511,-1.724 -2.959,-2.911 -2.412,-10.281 -2.312,-14.198 1.489,-58.327 28.558,-112.971 70.559,-152.894 28.071,-26.681 66.146,-48.12 105.94,-46.995 28.164,0.796 53.883,12.808 73.172,33.259 10.462,11.094 29.421,41.831 28.396,56.826 -0.126,1.844 -0.78,3.639 -2.329,4.75 -1.593,1.143 -4.227,1.883 -6.149,1.26 -3.809,-1.235 -9.999,-22.044 -12.446,-27.156 -11.018,-23.016 -30.345,-41.204 -54.594,-49.669 -25.969,-9.065 -53.943,-4.83 -78.313,6.952 -53.034,25.639 -93.977,82.486 -106.046,139.522 -1.587,7.499 -3.03,15.254 -3.719,22.889 -0.659,7.293 0.774,16.687 -1.726,23.435 -0.065,0.177 -0.142,0.35 -0.213,0.525 z"
     id="path23" />
  <path
     fill="#219bc3"
     d="m 315.46589,356.06771 c 9.99,-44.183 31.708,-83.85 62.892,-116.745 4.473,-4.718 15.715,-14.886 18.643,-3.056 0.794,3.939 -3.377,7.977 -5.867,10.538 -7.265,7.473 -13.809,14.92 -20.222,23.133 -25.467,34.32 -38.739,66.812 -46.634,109.42 -2.03,10.955 -1.318,24.438 -4.294,34.587 -0.528,1.799 -2.284,2.963 -4.04,3.629 -2.418,-0.178 -6.102,-0.779 -6.907,-3.376 -1.859,-6.006 -1.325,-17.246 -2.014,-23.642 -1.222,-11.348 -2.996,-22.206 -5.608,-33.116 -8.608,-35.956 -23.862,-68.163 -47.851,-96.413 -5.194,-6.047 -11.294,-11.241 -16.627,-17.165 -5.104,-5.671 -3.856,-9.443 2.145,-13.484 7.637,1.198 12.379,8.06 17.475,13.356 31.842,33.097 47.108,68.945 58.909,112.334 z"
     id="path24" />
  <path
     fill="#219bc3"
     d="m 141.94189,293.81371 c 41.659,-2.685 74.238,25.935 93.726,60.098 2.219,3.889 8.861,14.137 6.249,18.307 -5.97,9.197 -12.349,0.692 -15.542,-5.573 -18.93,-37.147 -54.053,-68.448 -98.228,-56.288 -43.088001,17.684 -49.811001,61.998 -50.406001,100.28 -0.109,6.977 -13.328,12.45 -13.651,-0.653 -1.289,-52.29 18.09,-109.241 77.852001,-116.171 z"
     id="path25" />
  <path
     fill="#219bc3"
     d="m 479.49889,293.80871 c 57.622,-6.137 86.366,56.403 87.145,103.632 0.105,6.361 2.512,17.784 -5.025,20.425 -10.047,0.135 -8.29,-10.897 -8.66,-17.383 -2.01,-35.3 -10.652,-66.313 -42.025,-86.247 -43.477,-25.048 -92.886,19.658 -109.713,57.838 -3.224,7.317 -17.847,4.341 -11.297,-8.737 4.464,-9.34 10.205,-18.418 16.728,-26.466 19.899,-24.549 41.233,-39.498 72.847,-43.062 z"
     id="path26" />
  <path
     fill="#219bc3"
     d="m 523.21589,126.56771 c 15.601,-2.185 35.801,3.755 49.55,11.177 4.282,2.311 7.686,8.48 4.041,13.152 -6.836,3.525 -11.553,-0.974 -17.706,-3.914 -39.293,-18.772 -75.701,3.954 -100.14,32.841 -9.157,11.225 -15.164,22.609 -23.013,34.243 -2.174,3.221 -15.687,0.887 -8.254,-12.542 20.63,-37.272 50.957,-70.544 95.522,-74.957 z"
     id="path27" />
  <path
     fill="#219bc3"
     d="m 95.517889,126.58671 c 45.747001,-3.276 81.009001,29.897 102.727001,66.368 3.698,6.21 14.106,23.271 -1.559,21.829 -4.247,-1.763 -14.238,-20.785 -18.02,-26.598 -24.651,-32.803 -59.526,-59.067 -102.757001,-43.24 -3.992,1.213 -16.917,11.29 -20.876,6.311 -13.001,-16.353 33.543,-24.121 40.485,-24.67 z"
     id="path28" />
  <path
     fill="#219bc3"
     d="m 262.12889,793.76671 h 70.844 c 12.667,-0.02 25.426,-0.34 38.027,0.44 6.053,0.38 9.719,6.33 5.123,10.51 -5.019,4.55 -16.756,2.81 -23.067,2.78 l -30.63,0.02 c -21.351,0.03 -43.458,0.33 -64.828,-0.23 -3.679,-0.1 -4.385,-1.43 -7.064,-4.17 0.726,-5.57 0.365,-6.31 5.386,-9.19 z"
     id="path29" />
  <path
     fill="#219bc3"
     d="m 335.17589,728.56671 c 6.792,-5.73 9.219,-5 16.362,0.08 26.406,20.81 46.738,47.14 56.909,79.46 5.38,17.1 -9.724,17.93 -12.108,8.41 -7.624,-30.84 -27.855,-56.01 -52.208,-75.64 -4.565,-3.68 -8.235,-6.33 -8.955,-12.31 z"
     id="path30" />
  <path
     fill="#219bc3"
     d="m 260.96789,451.48871 c 1.285,-1.001 4.117,-3.38 5.728,-3.428 27.039,-0.782 54.166,-0.215 81.222,-0.352 5.327,-0.026 12.349,-0.331 17.49,0.438 6.843,1.024 6.09,8.943 1.768,12.988 -14.513,0.597 -30.549,-0.313 -44.413,0.437 -4.778,-0.299 -8.991,-0.134 -13.753,0.006 -9.718,-0.545 -37.994,1.895 -46.232,-2.494 -1.741,-0.927 -1.748,-5.422 -1.81,-7.595 z"
     id="path31" />
  <path
     fill="#219bc3"
     d="m 280.79489,757.00671 43.219,0.06 c 6.742,-0.01 27.148,-2.49 25.648,6.82 -1.76,10.94 -36.39964,6.7162 -45.58248,6.9404 -7.36626,0.1041 -21.27152,1.1096 -26.24452,-3.0904 -1.109,-1.13 -1.28016,-4.1742 -1.47916,-5.8942 0.8109,-3.0029 2.24932,-4.0094 4.43916,-4.8358 z"
     id="path32" />
  <path
     fill="#219bc3"
     d="m 305.43489,483.74371 c 6.793,-0.093 16.145,-1.296 21.861,2.343 0.499,2.968 0.986,4.692 0.472,7.679 -7.051,5.699 -39.132,5.368 -34.676,-6.688 3.534,-3.303 7.804,-3.363 12.343,-3.334 z"
     id="path33" />
</svg>
